# xmcd CD database file
#
# Track frame offsets:
#	150
#	19461
#	49264
#	63525
#	82086
#	105327
#	117818
#	153376
#	194196
#
# Disc length: 3029 seconds
#
# Revision: 1
# Processed by: cddbd v1.5.1PL0 Copyright (c) Steve Scherf et al.
# Submitted via: CDex 1.50
#
DISCID=7d0bd309
DTITLE=Savoy Brown - Blue Matter
DYEAR=1969
DGENRE=Blues
TTITLE0=Train to nowhere
TTITLE1=Tolling bells
TTITLE2=She's got a ring in his nose and a ring on her hand
TTITLE3=Vicksburg Blues
TTITLE4=Don't turn me from your door
TTITLE5=Grits ain't groceries
TTITLE6=May be wrong
TTITLE7=Louisiana Blues
TTITLE8=It hurts me too
EXTD=YEAR: 1969
EXTT0=
EXTT1=
EXTT2=
EXTT3=
EXTT4=
EXTT5=
EXTT6=
EXTT7=
EXTT8=
PLAYORDER=
